# xmcd
#
# Track frame offsets: 
#        150
#        14024
#        29128
#        43142
#        57203
#        72106
#        86566
#        100073
#        113435
#        127655
#        140980
#        155736
#        170133
#        183034
#        195166
#        207221
#        217204
#        229397
#        239110
#        249326
#        262130
#        276970
#        285357
#        299079
#
# Disc length: 4157 seconds
#
# Revision: 1
# Processed by: cddbd v1.5.2PL0 Copyright (c) Steve Scherf et al.
# Submitted via: ExactAudioCopyFreeDBPlugin 1.0
#
DISCID=79103b18
DTITLE=Teddy Wilson - Swing Time 067 - Teddy Wilson Piano Solos 1934-3
DTITLE=9
DYEAR=1934
DGENRE=Jazz
TTITLE0=Somebody Loves Me
TTITLE1=Sweet And Simple
TTITLE2=Liza (All The Clouds'll Roll Away)
TTITLE3=Rosetta
TTITLE4=Every Now And Then
TTITLE5=It Never Dawned On Me
TTITLE6=Liza (All The Clouds'll Roll Away)
TTITLE7=Rosetta
TTITLE8=I Found A Dream
TTITLE9=On Treasure Island
TTITLE10=I Feel Like A Feather In The Breeze
TTITLE11=Breaking In A New Pair Of Shoes
TTITLE12=Don't Blame Me
TTITLE13=Between The Devil And The Deep Blue Sea
TTITLE14=That Old Feeling
TTITLE15=My Blue Heaven
TTITLE16=Loch Lomond
TTITLE17=Tiger Rag
TTITLE18=I'll See You In My Dreams
TTITLE19=Alice Blue Gown
TTITLE20=Coquette
TTITLE21=China Boy
TTITLE22=Melody In F
TTITLE23=When You And I Were Young, Maggie
EXTD=YEAR: 2006
EXTT0=
EXTT1=
EXTT2=
EXTT3=
EXTT4=
EXTT5=
EXTT6=
EXTT7=
EXTT8=
EXTT9=
EXTT10=
EXTT11=
EXTT12=
EXTT13=
EXTT14=
EXTT15=
EXTT16=
EXTT17=
EXTT18=
EXTT19=
EXTT20=
EXTT21=
EXTT22=
EXTT23=
PLAYORDER=
